<svg version="1" xmlns="http://www.w3.org/2000/svg" width="746.667" height="746.667" viewBox="0 0 560.000000 560.000000"><path d="M50.1 1.7c-4.4 1.5-8.9 6-10.4 10.4-.9 2.7-1.2 55.2-1.2 220.6v217.2l3 4.2c5.7 8 6.4 8.1 40.8 8.1l30.2-.1 3.8 4.7c2 2.6 5.3 6.5 7.3 8.7 1.9 2.2 5.2 6 7.2 8.5s4.2 4.9 4.8 5.5c.6.5 4.8 5.5 9.5 11 4.6 5.5 8.6 10.2 8.9 10.5.3.3 8.8 10.2 18.9 22 10.1 11.8 19.1 22.3 20 23.3 1.6 1.7 2.1 1.3 8.6-7 3.8-4.8 7.2-9 7.5-9.3.3-.3 4.4-5.2 9-11s8.7-10.7 9-11c.3-.3 2.1-2.5 4-5s3.7-4.7 4-5c.3-.3 4.1-5 8.6-10.5 4.4-5.5 12.6-15.7 18.2-22.7l10.3-12.6h117.3c108.6 0 117.6-.1 120.6-1.7 4.3-2.2 6.4-4.3 8.5-8.4 1.6-3.2 1.7-16.7 1.7-220.1 0-119.3-.3-217.9-.7-219.2-1.1-3.6-5.3-8.6-8.8-10.5C507.7.7 492.4.6 280.6.5 107.2.5 52.8.8 50.1 1.7z"/></svg>